<svg width="20" height="21" viewBox="0 0 20 21" fill="none" xmlns="http://www.w3.org/2000/svg">
<path d="M14.9319 12.9333C14.7161 13.1424 14.6169 13.4449 14.6661 13.7416L15.4069 17.8416C15.4694 18.1891 15.3228 18.5408 15.0319 18.7416C14.7469 18.9499 14.3678 18.9749 14.0569 18.8083L10.3661 16.8833C10.2378 16.8149 10.0953 16.7783 9.94943 16.7741H9.72359C9.64526 16.7858 9.5686 16.8108 9.4986 16.8491L5.80693 18.7833C5.62443 18.8749 5.41776 18.9074 5.21526 18.8749C4.72193 18.7816 4.39276 18.3116 4.4736 17.8158L5.21526 13.7158C5.26443 13.4166 5.16526 13.1124 4.94943 12.8999L1.94026 9.98325C1.6886 9.73908 1.6011 9.37242 1.7161 9.04159C1.82776 8.71159 2.11276 8.47075 2.45693 8.41659L6.5986 7.81575C6.9136 7.78325 7.19026 7.59159 7.33193 7.30825L9.15693 3.56659C9.20026 3.48325 9.2561 3.40659 9.3236 3.34159L9.39859 3.28325C9.43776 3.23992 9.48276 3.20409 9.53276 3.17492L9.6236 3.14159L9.76526 3.08325H10.1161C10.4294 3.11575 10.7053 3.30325 10.8494 3.58325L12.6986 7.30825C12.8319 7.58075 13.0911 7.76992 13.3903 7.81575L17.5319 8.41659C17.8819 8.46659 18.1744 8.70825 18.2903 9.04159C18.3994 9.37575 18.3053 9.74242 18.0486 9.98325L14.9319 12.9333Z" fill="#FD853A"/>
</svg>
